<mxfile host="Electron" agent="Mozilla/5.0 (X11; Linux x86_64) AppleWebKit/537.36 (KHTML, like Gecko) draw.io/26.0.4 Chrome/128.0.6613.186 Electron/32.2.5 Safari/537.36" version="26.0.4">
  <diagram name="Page-1" id="Up4Atcs_nuR--agPq8AE">
    <mxGraphModel dx="1778" dy="856" grid="1" gridSize="10" guides="1" tooltips="1" connect="1" arrows="1" fold="1" page="1" pageScale="1" pageWidth="850" pageHeight="1100" math="0" shadow="0">
      <root>
        <mxCell id="0" />
        <mxCell id="1" parent="0" />
        <mxCell id="ll6MWMwnBZ30vUrCTuTo-1" value="Region" style="points=[[0,0],[0.25,0],[0.5,0],[0.75,0],[1,0],[1,0.25],[1,0.5],[1,0.75],[1,1],[0.75,1],[0.5,1],[0.25,1],[0,1],[0,0.75],[0,0.5],[0,0.25]];outlineConnect=0;gradientColor=none;html=1;whiteSpace=wrap;fontSize=12;fontStyle=0;container=1;pointerEvents=0;collapsible=0;recursiveResize=0;shape=mxgraph.aws4.group;grIcon=mxgraph.aws4.group_region;strokeColor=#00A4A6;fillColor=none;verticalAlign=top;align=left;spacingLeft=30;fontColor=#147EBA;" vertex="1" parent="1">
          <mxGeometry x="50" y="290" width="645" height="350" as="geometry" />
        </mxCell>
        <mxCell id="ll6MWMwnBZ30vUrCTuTo-2" value="VPC" style="points=[[0,0],[0.25,0],[0.5,0],[0.75,0],[1,0],[1,0.25],[1,0.5],[1,0.75],[1,1],[0.75,1],[0.5,1],[0.25,1],[0,1],[0,0.75],[0,0.5],[0,0.25]];outlineConnect=0;gradientColor=none;html=1;whiteSpace=wrap;fontSize=12;fontStyle=0;container=1;pointerEvents=0;collapsible=0;recursiveResize=0;shape=mxgraph.aws4.group;grIcon=mxgraph.aws4.group_vpc2;strokeColor=#8C4FFF;fillColor=none;verticalAlign=top;align=left;spacingLeft=30;fontColor=#AAB7B8;dashed=0;" vertex="1" parent="ll6MWMwnBZ30vUrCTuTo-1">
          <mxGeometry x="30" y="40" width="590" height="300" as="geometry" />
        </mxCell>
        <mxCell id="ll6MWMwnBZ30vUrCTuTo-3" value="Availability Zone" style="fillColor=none;strokeColor=#147EBA;dashed=1;verticalAlign=top;fontStyle=0;fontColor=#147EBA;whiteSpace=wrap;html=1;" vertex="1" parent="ll6MWMwnBZ30vUrCTuTo-2">
          <mxGeometry x="90" y="-20" width="490" height="320" as="geometry" />
        </mxCell>
        <mxCell id="ll6MWMwnBZ30vUrCTuTo-4" value="Private subnet" style="points=[[0,0],[0.25,0],[0.5,0],[0.75,0],[1,0],[1,0.25],[1,0.5],[1,0.75],[1,1],[0.75,1],[0.5,1],[0.25,1],[0,1],[0,0.75],[0,0.5],[0,0.25]];outlineConnect=0;gradientColor=none;html=1;whiteSpace=wrap;fontSize=12;fontStyle=0;container=1;pointerEvents=0;collapsible=0;recursiveResize=0;shape=mxgraph.aws4.group;grIcon=mxgraph.aws4.group_security_group;grStroke=0;strokeColor=#00A4A6;fillColor=#E6F6F7;verticalAlign=top;align=left;spacingLeft=30;fontColor=#147EBA;dashed=0;" vertex="1" parent="ll6MWMwnBZ30vUrCTuTo-2">
          <mxGeometry x="410" y="20" width="150" height="260" as="geometry" />
        </mxCell>
        <mxCell id="ll6MWMwnBZ30vUrCTuTo-5" value="Public subnet" style="points=[[0,0],[0.25,0],[0.5,0],[0.75,0],[1,0],[1,0.25],[1,0.5],[1,0.75],[1,1],[0.75,1],[0.5,1],[0.25,1],[0,1],[0,0.75],[0,0.5],[0,0.25]];outlineConnect=0;gradientColor=none;html=1;whiteSpace=wrap;fontSize=12;fontStyle=0;container=1;pointerEvents=0;collapsible=0;recursiveResize=0;shape=mxgraph.aws4.group;grIcon=mxgraph.aws4.group_security_group;grStroke=0;strokeColor=#7AA116;fillColor=#F2F6E8;verticalAlign=top;align=left;spacingLeft=30;fontColor=#248814;dashed=0;" vertex="1" parent="ll6MWMwnBZ30vUrCTuTo-2">
          <mxGeometry x="150" y="20" width="150" height="260" as="geometry" />
        </mxCell>
        <mxCell id="ll6MWMwnBZ30vUrCTuTo-7" value="Security group" style="fillColor=none;strokeColor=#DD3522;verticalAlign=top;fontStyle=0;fontColor=#DD3522;whiteSpace=wrap;html=1;" vertex="1" parent="ll6MWMwnBZ30vUrCTuTo-5">
          <mxGeometry x="10" y="130" width="130" height="122" as="geometry" />
        </mxCell>
        <mxCell id="ll6MWMwnBZ30vUrCTuTo-8" value="Public EC2 Instance" style="sketch=0;outlineConnect=0;fontColor=#232F3E;gradientColor=none;fillColor=#ED7100;strokeColor=none;dashed=0;verticalLabelPosition=bottom;verticalAlign=top;align=center;html=1;fontSize=12;fontStyle=0;aspect=fixed;pointerEvents=1;shape=mxgraph.aws4.instance2;" vertex="1" parent="ll6MWMwnBZ30vUrCTuTo-5">
          <mxGeometry x="55" y="171" width="40" height="40" as="geometry" />
        </mxCell>
        <mxCell id="ll6MWMwnBZ30vUrCTuTo-10" value="Route Table" style="sketch=0;outlineConnect=0;fontColor=#232F3E;gradientColor=none;fillColor=#8C4FFF;strokeColor=none;dashed=0;verticalLabelPosition=top;verticalAlign=bottom;align=center;html=1;fontSize=12;fontStyle=0;aspect=fixed;pointerEvents=1;shape=mxgraph.aws4.route_table;labelPosition=center;" vertex="1" parent="ll6MWMwnBZ30vUrCTuTo-5">
          <mxGeometry x="-30" y="70" width="51.32" height="50" as="geometry" />
        </mxCell>
        <mxCell id="ll6MWMwnBZ30vUrCTuTo-12" style="edgeStyle=orthogonalEdgeStyle;rounded=0;orthogonalLoop=1;jettySize=auto;html=1;" edge="1" parent="ll6MWMwnBZ30vUrCTuTo-2" source="ll6MWMwnBZ30vUrCTuTo-9" target="ll6MWMwnBZ30vUrCTuTo-8">
          <mxGeometry relative="1" as="geometry">
            <Array as="points">
              <mxPoint x="80" y="211" />
            </Array>
          </mxGeometry>
        </mxCell>
        <mxCell id="ll6MWMwnBZ30vUrCTuTo-9" value="Router" style="sketch=0;outlineConnect=0;fontColor=#232F3E;gradientColor=none;fillColor=#8C4FFF;strokeColor=none;dashed=0;verticalLabelPosition=top;verticalAlign=bottom;align=center;html=1;fontSize=12;fontStyle=0;aspect=fixed;pointerEvents=1;shape=mxgraph.aws4.router;labelPosition=center;" vertex="1" parent="ll6MWMwnBZ30vUrCTuTo-2">
          <mxGeometry x="60" y="50" width="40" height="40" as="geometry" />
        </mxCell>
        <mxCell id="ll6MWMwnBZ30vUrCTuTo-11" style="edgeStyle=orthogonalEdgeStyle;rounded=0;orthogonalLoop=1;jettySize=auto;html=1;" edge="1" parent="ll6MWMwnBZ30vUrCTuTo-1" source="ll6MWMwnBZ30vUrCTuTo-6" target="ll6MWMwnBZ30vUrCTuTo-9">
          <mxGeometry relative="1" as="geometry" />
        </mxCell>
        <mxCell id="ll6MWMwnBZ30vUrCTuTo-6" value="Internet&lt;div&gt;Gateway&lt;/div&gt;" style="sketch=0;outlineConnect=0;fontColor=#232F3E;gradientColor=none;fillColor=#8C4FFF;strokeColor=none;dashed=0;verticalLabelPosition=bottom;verticalAlign=top;align=center;html=1;fontSize=12;fontStyle=0;aspect=fixed;pointerEvents=1;shape=mxgraph.aws4.internet_gateway;" vertex="1" parent="ll6MWMwnBZ30vUrCTuTo-1">
          <mxGeometry x="10" y="90" width="40" height="40" as="geometry" />
        </mxCell>
        <mxCell id="ll6MWMwnBZ30vUrCTuTo-13" value="Internet" style="sketch=0;outlineConnect=0;fontColor=#232F3E;gradientColor=none;fillColor=#232F3D;strokeColor=none;dashed=0;verticalLabelPosition=top;verticalAlign=bottom;align=center;html=1;fontSize=12;fontStyle=0;aspect=fixed;pointerEvents=1;shape=mxgraph.aws4.internet;labelPosition=center;" vertex="1" parent="1">
          <mxGeometry x="-80" y="260" width="78" height="48" as="geometry" />
        </mxCell>
        <mxCell id="ll6MWMwnBZ30vUrCTuTo-14" value="&amp;nbsp;www&amp;nbsp;" style="edgeStyle=orthogonalEdgeStyle;rounded=0;orthogonalLoop=1;jettySize=auto;html=1;" edge="1" parent="1" source="ll6MWMwnBZ30vUrCTuTo-6" target="ll6MWMwnBZ30vUrCTuTo-13">
          <mxGeometry x="-0.3782" relative="1" as="geometry">
            <Array as="points">
              <mxPoint x="-41" y="400" />
            </Array>
            <mxPoint as="offset" />
          </mxGeometry>
        </mxCell>
      </root>
    </mxGraphModel>
  </diagram>
</mxfile>
